# xmcd
#
# Track frame offsets:
#	150
#	45928
#	80040
#	113872
#	139874
#
# Disc length: 2246 seconds
#
# Revision: 0
# Processed by: cddbd v1.5.2PL0 Copyright (c) Steve Scherf et al.
# Submitted via: EasyCDDAExtractor 11.1.0.1
#
DISCID=3b08c405
DTITLE=Ten years After - Undead
DYEAR=1968
DGENRE=Classic Rock
TTITLE0=I May Be Wrong But
TTITLE1=Woodchoppers Ball
TTITLE2=Spider In My Web
TTITLE3=Summertimer Shantung Cabbage
TTITLE4=Im Going Home
EXTD=
EXTT0=
EXTT1=
EXTT2=
EXTT3=
EXTT4=
PLAYORDER=
